<svg width="106" height="121" viewBox="0 0 106 121" fill="none" xmlns="http://www.w3.org/2000/svg">
<path d="M0 37.8683C0 32.7883 2.75177 28.107 7.19027 25.636L46.3513 3.83496C50.628 1.45411 55.8376 1.47971 60.0907 3.90248L98.1996 25.6113C102.571 28.1013 105.27 32.7453 105.27 37.776V85.8481C105.27 91.1071 102.323 95.9225 97.6397 98.3152L59.5371 117.783C55.5773 119.806 50.8918 119.827 46.9134 117.841L7.74592 98.2843C2.99915 95.9142 0 91.0644 0 85.7589V37.8683Z" fill="#D92109"/>
<path d="M49.3573 39.7907C50.946 45.2371 49.3239 50.7342 45.7354 52.08C42.1469 53.4257 37.9474 50.0995 36.3587 44.6531C34.77 39.2067 36.392 33.7096 39.9805 32.3638C43.569 31.0181 47.7685 34.3443 49.3573 39.7907ZM35.3477 53.2099C37.4475 57.3232 36.9364 62.1094 34.2145 63.8868C31.4926 65.6641 27.5819 63.7725 25.4932 59.6592C23.4046 55.5458 23.8934 50.7596 26.6153 48.9823C29.3373 47.2049 33.2479 49.0965 35.3366 53.2099H35.3477ZM31.8814 78.9309C37.703 60.9922 48.0463 56.4345 52.6347 56.4345C57.223 56.4345 67.5663 60.9922 73.3879 78.9309C73.7879 80.1624 73.9656 81.4827 73.9656 82.8031V83.0062C73.9656 86.2816 71.6437 88.935 68.7773 88.935C67.4997 88.935 66.2332 88.7573 65 88.4018L55.2233 85.6088C53.5235 85.1264 51.7459 85.1264 50.0461 85.6088L40.2694 88.4018C39.0362 88.7573 37.7697 88.935 36.492 88.935C33.6257 88.935 31.3037 86.2816 31.3037 83.0062V82.8031C31.3037 81.4827 31.4815 80.1624 31.8814 78.9309ZM71.0548 63.8868C68.3329 62.1094 67.8219 57.3232 69.9216 53.2099C72.0214 49.0965 75.921 47.2049 78.6429 48.9823C81.3648 50.7596 81.8759 55.5458 79.7761 59.6592C77.6763 63.7725 73.7768 65.6641 71.0548 63.8868ZM58.6451 52.08C55.0566 50.7342 53.4346 45.2371 55.0233 39.7907C56.612 34.3443 60.8115 31.0181 64.4 32.3638C67.9885 33.7096 69.6106 39.2067 68.0219 44.6531C66.4331 50.0995 62.2336 53.4257 58.6451 52.08Z" fill="white"/>
</svg>
