<svg width="445" height="200" viewBox="0 0 445 200" fill="none" xmlns="http://www.w3.org/2000/svg">
<path d="M0 60.1583C0 53.2641 3.73454 46.9109 9.75823 43.5575L78.6511 5.20458C84.4551 1.97343 91.5253 2.00818 97.2973 5.29622L164.405 43.5238C170.337 46.9032 174 53.2057 174 60.0331V144.432C174 151.569 170 158.104 163.645 161.351L96.5461 195.634C91.172 198.379 84.8131 198.409 79.4138 195.713L10.5123 161.31C4.07027 158.093 0 151.511 0 144.311V60.1583Z" fill="white"/>
<path d="M81.5823 65.7698C84.2083 74.772 81.5272 83.8582 75.5958 86.0826C69.6645 88.3069 62.7231 82.809 60.0971 73.8067C57.4711 64.8045 60.1522 55.7183 66.0836 53.4939C72.015 51.2696 78.9564 56.7675 81.5823 65.7698ZM58.426 87.9502C61.8967 94.7491 61.052 102.66 56.553 105.598C52.0539 108.536 45.59 105.409 42.1377 98.6102C38.6853 91.8113 39.4933 83.9002 43.9924 80.9624C48.4914 78.0246 54.9553 81.1513 58.4077 87.9502H58.426ZM52.6966 130.464C62.3191 100.814 79.4154 93.2802 86.9995 93.2802C94.5836 93.2802 111.68 100.814 121.302 130.464C121.964 132.5 122.257 134.682 122.257 136.865V137.2C122.257 142.614 118.419 147 113.682 147C111.57 147 109.476 146.706 107.438 146.119L91.2782 141.502C88.4686 140.705 85.5305 140.705 82.7209 141.502L66.561 146.119C64.5227 146.706 62.4293 147 60.3175 147C55.5797 147 51.7417 142.614 51.7417 137.2V136.865C51.7417 134.682 52.0356 132.5 52.6966 130.464ZM117.446 105.598C112.947 102.66 112.102 94.7491 115.573 87.9502C119.044 81.1513 125.489 78.0246 129.988 80.9624C134.487 83.9002 135.332 91.8113 131.861 98.6102C128.391 105.409 121.945 108.536 117.446 105.598ZM96.9342 86.0826C91.0028 83.8582 88.3217 74.772 90.9477 65.7698C93.5736 56.7675 100.515 51.2696 106.446 53.4939C112.378 55.7183 115.059 64.8045 112.433 73.8067C109.807 82.809 102.866 88.3069 96.9342 86.0826Z" fill="#D92109"/>
<path d="M200.229 91V32.9H210.521C214.671 32.9 217.853 34.2557 220.066 36.967C222.335 39.623 223.469 44.4647 223.469 51.492V51.907C223.469 58.9343 222.335 63.776 220.066 66.432C217.853 69.088 214.671 70.416 210.521 70.416H206.869V91H200.229ZM216.912 52.986V50.413C216.912 42.279 214.782 38.212 210.521 38.212H206.869V65.187H210.521C214.782 65.187 216.912 61.12 216.912 52.986ZM253.953 32.9H260.51V73.653C260.51 80.6803 259.376 85.5497 257.107 88.261C254.894 90.917 251.74 92.245 247.645 92.245C243.551 92.245 240.369 90.917 238.1 88.261C235.887 85.5497 234.78 80.6803 234.78 73.653V32.9H241.337V74.898C241.337 79.38 241.891 82.5063 242.997 84.277C244.104 85.9923 245.626 86.85 247.562 86.85C249.554 86.85 251.104 85.9923 252.21 84.277C253.372 82.5063 253.953 79.38 253.953 74.898V32.9ZM275.357 91V32.9H285.649C289.799 32.9 292.981 34.2557 295.194 36.967C297.463 39.623 298.597 44.4647 298.597 51.492V51.907C298.597 58.9343 297.463 63.776 295.194 66.432C292.981 69.088 289.799 70.416 285.649 70.416H281.997V91H275.357ZM292.04 52.986V50.413C292.04 42.279 289.91 38.212 285.649 38.212H281.997V65.187H285.649C289.91 65.187 292.04 61.12 292.04 52.986ZM310.489 91V32.9H320.781C324.931 32.9 328.113 34.2557 330.326 36.967C332.595 39.623 333.729 44.4647 333.729 51.492V51.907C333.729 58.9343 332.595 63.776 330.326 66.432C328.113 69.088 324.931 70.416 320.781 70.416H317.129V91H310.489ZM327.172 52.986V50.413C327.172 42.279 325.042 38.212 320.781 38.212H317.129V65.187H320.781C325.042 65.187 327.172 61.12 327.172 52.986ZM345.622 91V32.9H352.262V91H345.622ZM374.344 64.689V85.688H388.786V91H367.704V32.9H388.537V38.212H374.344V59.377H387.292V64.689H374.344ZM420.357 77.969C420.357 73.5423 418.863 70.1393 415.875 67.76L409.235 62.863C404.255 59.3217 401.765 54.0927 401.765 47.176C401.765 41.4213 402.844 37.4097 405.002 35.141C407.216 32.817 410.204 31.655 413.966 31.655C417.784 31.655 420.745 32.734 422.847 34.892C424.95 36.9947 426.223 40.8403 426.665 46.429L420.357 47.84C420.136 40.7573 418.061 37.216 414.132 37.216C410.259 37.216 408.322 40.2317 408.322 46.263C408.322 48.919 408.599 51.077 409.152 52.737C409.761 54.397 410.895 55.891 412.555 57.219L419.112 62.116C420.662 63.2227 421.907 64.274 422.847 65.27C423.788 66.266 424.673 67.8707 425.503 70.084C426.389 72.242 426.831 74.815 426.831 77.803C426.831 83.115 425.669 86.85 423.345 89.008C421.077 91.166 417.978 92.245 414.049 92.245C410.121 92.245 407.05 90.9723 404.836 88.427C402.623 85.8817 401.267 81.3443 400.769 74.815L406.994 73.736C407.216 78.4393 407.88 81.787 408.986 83.779C410.148 85.771 411.753 86.767 413.8 86.767C418.172 86.767 420.357 83.8343 420.357 77.969ZM200.229 171V112.9H206.869V165.688H219.734V171H200.229ZM256.045 130.247V153.653C256.045 160.68 254.91 165.55 252.642 168.261C250.428 170.917 247.219 172.245 243.014 172.245C238.864 172.245 235.654 170.917 233.386 168.261C231.172 165.55 230.066 160.68 230.066 153.653V130.247C230.066 123.22 231.172 118.378 233.386 115.722C235.654 113.011 238.864 111.655 243.014 111.655C247.219 111.655 250.428 113.011 252.642 115.722C254.91 118.378 256.045 123.22 256.045 130.247ZM249.488 154.898V129.002C249.488 121.034 247.357 117.05 243.097 117.05C241.049 117.05 239.445 117.908 238.283 119.623C237.176 121.338 236.623 124.465 236.623 129.002V154.898C236.623 159.435 237.176 162.562 238.283 164.277C239.445 165.992 241.049 166.85 243.097 166.85C247.357 166.85 249.488 162.866 249.488 154.898ZM273.071 112.9L281.371 161.372L289.671 112.9H296.311L285.521 171H277.221L266.431 112.9H273.071ZM314.455 144.689V165.688H328.897V171H307.815V112.9H328.648V118.212H314.455V139.377H327.403V144.689H314.455Z" fill="white"/>
</svg>
