<svg width="276" height="243" viewBox="0 0 276 243" fill="none" xmlns="http://www.w3.org/2000/svg">
<mask id="path-1-inside-1_138_4" fill="white">
<path d="M44.1748 1.78532C42.6856 2.77716 41.792 3.96736 42.1892 4.26491C42.487 4.66165 42.1892 4.9592 41.3949 4.9592C40.5014 4.9592 38.1187 8.52981 35.7359 13.0923C33.4525 17.6547 29.7791 24.3992 27.5949 28.2674C25.4107 32.0363 22.333 37.789 20.6453 40.8637C18.9575 44.0376 17.1705 46.6163 16.5748 46.6163C16.0784 46.6163 15.7805 47.0131 16.0784 47.4098C16.3762 47.9057 15.0856 50.6829 13.2985 53.7576C11.4122 56.7331 9.62513 60.2045 9.228 61.3947C8.93016 62.4857 8.13592 63.4776 7.63951 63.4776C7.14311 63.4776 6.74599 64.1719 6.74599 64.9653C6.74599 65.7588 6.34887 66.4531 5.95175 66.4531C4.56182 66.4531 0.590594 76.669 0.0941916 81.529C-0.700053 89.2653 3.66829 102.853 7.93736 105.928C8.93016 106.622 9.72441 107.713 9.72441 108.309C9.72441 109.697 17.369 117.037 18.7589 117.037C19.3546 117.037 20.4467 117.731 21.3402 118.525C22.7302 119.913 22.8294 126.856 22.8294 176.547C22.7302 209.674 23.1273 234.371 23.723 236.355C25.6093 243.198 17.6669 242.802 138.094 242.702C197.96 242.702 247.005 242.405 247.005 241.909C247.005 241.512 247.899 240.917 248.891 240.52C251.969 239.628 252.863 234.966 252.863 220.981C252.863 213.741 252.863 187.656 252.863 163.157L252.962 118.525L256.437 116.541C260.507 114.359 265.868 109.598 265.868 108.011C265.868 107.515 266.265 107.218 266.663 107.515C267.556 108.011 271.924 99.878 273.414 94.7204C273.612 94.1253 274.009 92.6376 274.406 91.249C275.201 88.6702 275.3 78.1568 274.605 75.1812C274.406 74.2886 273.414 72.6025 272.322 71.4123C271.329 70.3212 270.832 69.4286 271.229 69.4286C271.527 69.4286 270.336 67.0482 268.35 64.271C266.464 61.3947 264.875 58.5184 264.875 57.8241C264.875 57.1298 264.379 56.5347 263.783 56.5347C263.287 56.5347 262.989 56.138 263.287 55.6421C263.585 55.1461 263.188 54.2535 262.393 53.5592C261.599 52.8649 260.904 51.8731 260.904 51.278C260.904 50.7821 259.316 47.9057 257.429 45.0294C255.543 42.1531 253.955 39.5743 253.955 39.1776C253.955 38.88 252.863 37.0947 251.572 35.4086C250.281 33.6233 248.792 30.8461 248.296 29.2592C247.7 27.5731 246.111 24.5976 244.722 22.5147C243.232 20.3327 241.545 17.1588 240.85 15.2743C240.254 13.3898 239.261 11.9021 238.864 11.9021C238.467 11.9021 237.176 10.1167 236.084 7.93471C234.992 5.75267 233.602 3.96736 233.006 3.96736C232.411 3.96736 232.311 3.47144 232.609 2.97552C234.297 0.297564 225.263 1.26881e-05 137.499 1.26881e-05C51.6208 1.26881e-05 46.8553 0.0991964 44.1748 1.78532ZM218.809 21.7212C219.405 21.8204 221.788 25.4902 224.071 29.9535C231.418 44.3351 233.801 48.6 235.389 50.3853C236.283 51.278 236.878 52.2698 236.779 52.5674C236.779 52.8649 237.375 54.1543 238.169 55.5429C239.063 56.9314 241.147 60.4029 242.835 63.18L245.913 68.4368H138.293H30.6726L31.7647 65.1637C32.4597 63.4776 33.5517 61.3947 34.2467 60.7004C35.4381 59.411 35.8352 58.1216 35.3388 57.1298C35.1402 56.8323 36.5302 55.047 38.4165 53.1625C40.3028 51.1788 41.5935 49.3935 41.1963 48.9967C40.8985 48.6992 41.8913 46.6163 43.4798 44.4343C45.1676 42.2523 46.2597 40.0702 45.9618 39.6735C45.7633 39.2767 46.4582 38.0865 47.451 36.8963C48.5431 35.7061 49.4366 34.1192 49.4366 33.2265C49.4366 32.4331 49.8338 31.7388 50.3302 31.7388C50.8266 31.7388 52.3158 29.3584 53.7057 26.4821L56.0884 21.3245L136.903 21.5229C181.381 21.6221 218.214 21.7212 218.809 21.7212ZM60.5561 91.3482C60.1589 93.1335 54.4999 98.1919 52.8122 98.1919C52.1172 98.1919 51.4222 98.6878 51.2237 99.2829C50.7273 100.87 43.4798 102.159 38.7143 101.564C36.2323 101.167 33.0553 99.7788 30.7719 97.9935C28.7863 96.4065 26.6021 94.7204 26.0064 94.4229C25.4107 94.0261 24.6165 92.8359 24.2194 91.7449C23.6237 89.7612 24.1201 89.7612 42.2884 89.8604C57.3791 89.9596 60.7546 90.2572 60.5561 91.3482ZM124.592 90.6539C125.088 91.0506 124.096 92.5384 122.408 93.927C120.819 95.3155 118.437 97.2992 117.146 98.291C112.48 102.258 103.247 102.853 96.8927 99.5804C94.0136 98.0927 87.1633 91.6457 87.1633 90.4555C87.1633 89.4637 123.699 89.6621 124.592 90.6539ZM187.635 91.3482C187.238 92.9351 182.274 97.6959 181.281 97.3984C180.785 97.2992 180.487 97.4976 180.487 97.9935C180.487 99.4812 173.835 101.564 169.07 101.564C165.496 101.564 162.815 100.87 159.539 98.8861C155.071 96.2082 150.604 92.2408 152.192 92.2408C152.589 92.2408 152.49 91.6457 151.894 90.9514C151.1 90.0588 154.674 89.7612 169.368 89.8604C184.061 90.0588 187.834 90.3563 187.635 91.3482ZM251.373 90.158C253.16 90.2572 253.16 90.4555 250.976 92.7368C249.686 94.0261 247.899 95.4147 246.906 95.7123C245.814 96.109 245.317 96.9025 245.714 97.7951C246.012 98.5886 245.913 99.1837 245.416 98.9853C244.92 98.8861 243.431 99.3821 242.041 100.076C238.566 102.06 229.333 101.961 225.163 99.878C221.49 98.0927 214.242 91.9433 214.242 90.5547C214.242 89.9596 242.14 89.6621 251.373 90.158ZM204.314 112.375C206.995 115.648 216.526 120.508 224.667 122.492L231.616 124.277L231.517 172.48L231.418 220.684L181.678 220.981C154.277 221.08 131.84 220.882 131.74 220.485C131.74 219.989 131.74 205.608 131.74 188.449C131.74 159.19 130.747 143.816 128.861 143.816C128.464 143.816 127.868 142.825 127.57 141.535C126.677 138.262 120.819 132.509 115.756 130.129C111.785 128.145 109.799 127.947 95.0064 128.046C84.9791 128.046 77.4338 128.542 75.4481 129.336C68.7963 131.716 61.251 141.337 59.6625 149.668C59.3647 151.057 58.9676 166.529 58.8683 183.986C58.6697 201.442 58.4712 217.014 58.4712 218.502L58.3719 221.279L51.2237 220.981L44.1748 220.684L44.0755 172.778C43.9762 139.651 44.274 124.575 45.0683 123.98C45.5647 123.484 47.7489 122.889 49.7345 122.591C54.1028 122.095 60.6553 120.012 61.3503 119.02C61.6481 118.624 63.5345 117.533 65.6194 116.739C67.605 115.847 69.2928 114.656 69.2928 114.16C69.2928 113.565 69.9877 113.069 70.782 113.069C71.5762 113.069 72.2712 112.573 72.2712 112.078C72.2712 110.689 74.8525 110.887 76.441 112.375C80.0151 115.946 90.3402 121.103 96.7935 122.591C102.155 123.781 111.487 123.682 115.26 122.393C117.245 121.698 119.33 121.004 119.727 120.905C123.897 120.012 131.939 115.847 132.534 114.359C132.832 113.665 133.428 113.268 133.825 113.565C134.222 113.863 134.818 113.367 135.215 112.573C135.811 110.987 139.782 110.491 139.782 111.978C139.782 112.474 141.172 113.367 142.76 114.061C144.448 114.756 145.739 115.648 145.739 116.045C145.739 117.037 154.575 120.905 160.631 122.393C165.595 123.682 170.063 123.781 177.707 122.69C181.579 122.095 193.393 116.938 193.393 115.747C193.393 115.152 193.691 115.053 193.989 115.351C194.386 115.747 196.173 114.656 198.06 113.069C199.847 111.383 201.634 110.094 201.932 110.094C202.329 110.094 203.322 111.086 204.314 112.375ZM107.218 150.66C108.409 151.553 109.7 152.941 109.899 153.735C109.998 154.528 110.196 169.902 110.296 187.953V220.684L96.0985 220.981C88.0568 221.08 81.6035 220.882 81.3057 220.287C80.8093 219.493 80.71 185.473 81.1071 158C81.2064 151.255 81.3057 150.858 83.9863 149.966C88.5532 148.28 104.537 148.776 107.218 150.66Z"/>
</mask>
<path d="M44.1748 1.78532C42.6856 2.77716 41.792 3.96736 42.1892 4.26491C42.487 4.66165 42.1892 4.9592 41.3949 4.9592C40.5014 4.9592 38.1187 8.52981 35.7359 13.0923C33.4525 17.6547 29.7791 24.3992 27.5949 28.2674C25.4107 32.0363 22.333 37.789 20.6453 40.8637C18.9575 44.0376 17.1705 46.6163 16.5748 46.6163C16.0784 46.6163 15.7805 47.0131 16.0784 47.4098C16.3762 47.9057 15.0856 50.6829 13.2985 53.7576C11.4122 56.7331 9.62513 60.2045 9.228 61.3947C8.93016 62.4857 8.13592 63.4776 7.63951 63.4776C7.14311 63.4776 6.74599 64.1719 6.74599 64.9653C6.74599 65.7588 6.34887 66.4531 5.95175 66.4531C4.56182 66.4531 0.590594 76.669 0.0941916 81.529C-0.700053 89.2653 3.66829 102.853 7.93736 105.928C8.93016 106.622 9.72441 107.713 9.72441 108.309C9.72441 109.697 17.369 117.037 18.7589 117.037C19.3546 117.037 20.4467 117.731 21.3402 118.525C22.7302 119.913 22.8294 126.856 22.8294 176.547C22.7302 209.674 23.1273 234.371 23.723 236.355C25.6093 243.198 17.6669 242.802 138.094 242.702C197.96 242.702 247.005 242.405 247.005 241.909C247.005 241.512 247.899 240.917 248.891 240.52C251.969 239.628 252.863 234.966 252.863 220.981C252.863 213.741 252.863 187.656 252.863 163.157L252.962 118.525L256.437 116.541C260.507 114.359 265.868 109.598 265.868 108.011C265.868 107.515 266.265 107.218 266.663 107.515C267.556 108.011 271.924 99.878 273.414 94.7204C273.612 94.1253 274.009 92.6376 274.406 91.249C275.201 88.6702 275.3 78.1568 274.605 75.1812C274.406 74.2886 273.414 72.6025 272.322 71.4123C271.329 70.3212 270.832 69.4286 271.229 69.4286C271.527 69.4286 270.336 67.0482 268.35 64.271C266.464 61.3947 264.875 58.5184 264.875 57.8241C264.875 57.1298 264.379 56.5347 263.783 56.5347C263.287 56.5347 262.989 56.138 263.287 55.6421C263.585 55.1461 263.188 54.2535 262.393 53.5592C261.599 52.8649 260.904 51.8731 260.904 51.278C260.904 50.7821 259.316 47.9057 257.429 45.0294C255.543 42.1531 253.955 39.5743 253.955 39.1776C253.955 38.88 252.863 37.0947 251.572 35.4086C250.281 33.6233 248.792 30.8461 248.296 29.2592C247.7 27.5731 246.111 24.5976 244.722 22.5147C243.232 20.3327 241.545 17.1588 240.85 15.2743C240.254 13.3898 239.261 11.9021 238.864 11.9021C238.467 11.9021 237.176 10.1167 236.084 7.93471C234.992 5.75267 233.602 3.96736 233.006 3.96736C232.411 3.96736 232.311 3.47144 232.609 2.97552C234.297 0.297564 225.263 1.26881e-05 137.499 1.26881e-05C51.6208 1.26881e-05 46.8553 0.0991964 44.1748 1.78532ZM218.809 21.7212C219.405 21.8204 221.788 25.4902 224.071 29.9535C231.418 44.3351 233.801 48.6 235.389 50.3853C236.283 51.278 236.878 52.2698 236.779 52.5674C236.779 52.8649 237.375 54.1543 238.169 55.5429C239.063 56.9314 241.147 60.4029 242.835 63.18L245.913 68.4368H138.293H30.6726L31.7647 65.1637C32.4597 63.4776 33.5517 61.3947 34.2467 60.7004C35.4381 59.411 35.8352 58.1216 35.3388 57.1298C35.1402 56.8323 36.5302 55.047 38.4165 53.1625C40.3028 51.1788 41.5935 49.3935 41.1963 48.9967C40.8985 48.6992 41.8913 46.6163 43.4798 44.4343C45.1676 42.2523 46.2597 40.0702 45.9618 39.6735C45.7633 39.2767 46.4582 38.0865 47.451 36.8963C48.5431 35.7061 49.4366 34.1192 49.4366 33.2265C49.4366 32.4331 49.8338 31.7388 50.3302 31.7388C50.8266 31.7388 52.3158 29.3584 53.7057 26.4821L56.0884 21.3245L136.903 21.5229C181.381 21.6221 218.214 21.7212 218.809 21.7212ZM60.5561 91.3482C60.1589 93.1335 54.4999 98.1919 52.8122 98.1919C52.1172 98.1919 51.4222 98.6878 51.2237 99.2829C50.7273 100.87 43.4798 102.159 38.7143 101.564C36.2323 101.167 33.0553 99.7788 30.7719 97.9935C28.7863 96.4065 26.6021 94.7204 26.0064 94.4229C25.4107 94.0261 24.6165 92.8359 24.2194 91.7449C23.6237 89.7612 24.1201 89.7612 42.2884 89.8604C57.3791 89.9596 60.7546 90.2572 60.5561 91.3482ZM124.592 90.6539C125.088 91.0506 124.096 92.5384 122.408 93.927C120.819 95.3155 118.437 97.2992 117.146 98.291C112.48 102.258 103.247 102.853 96.8927 99.5804C94.0136 98.0927 87.1633 91.6457 87.1633 90.4555C87.1633 89.4637 123.699 89.6621 124.592 90.6539ZM187.635 91.3482C187.238 92.9351 182.274 97.6959 181.281 97.3984C180.785 97.2992 180.487 97.4976 180.487 97.9935C180.487 99.4812 173.835 101.564 169.07 101.564C165.496 101.564 162.815 100.87 159.539 98.8861C155.071 96.2082 150.604 92.2408 152.192 92.2408C152.589 92.2408 152.49 91.6457 151.894 90.9514C151.1 90.0588 154.674 89.7612 169.368 89.8604C184.061 90.0588 187.834 90.3563 187.635 91.3482ZM251.373 90.158C253.16 90.2572 253.16 90.4555 250.976 92.7368C249.686 94.0261 247.899 95.4147 246.906 95.7123C245.814 96.109 245.317 96.9025 245.714 97.7951C246.012 98.5886 245.913 99.1837 245.416 98.9853C244.92 98.8861 243.431 99.3821 242.041 100.076C238.566 102.06 229.333 101.961 225.163 99.878C221.49 98.0927 214.242 91.9433 214.242 90.5547C214.242 89.9596 242.14 89.6621 251.373 90.158ZM204.314 112.375C206.995 115.648 216.526 120.508 224.667 122.492L231.616 124.277L231.517 172.48L231.418 220.684L181.678 220.981C154.277 221.08 131.84 220.882 131.74 220.485C131.74 219.989 131.74 205.608 131.74 188.449C131.74 159.19 130.747 143.816 128.861 143.816C128.464 143.816 127.868 142.825 127.57 141.535C126.677 138.262 120.819 132.509 115.756 130.129C111.785 128.145 109.799 127.947 95.0064 128.046C84.9791 128.046 77.4338 128.542 75.4481 129.336C68.7963 131.716 61.251 141.337 59.6625 149.668C59.3647 151.057 58.9676 166.529 58.8683 183.986C58.6697 201.442 58.4712 217.014 58.4712 218.502L58.3719 221.279L51.2237 220.981L44.1748 220.684L44.0755 172.778C43.9762 139.651 44.274 124.575 45.0683 123.98C45.5647 123.484 47.7489 122.889 49.7345 122.591C54.1028 122.095 60.6553 120.012 61.3503 119.02C61.6481 118.624 63.5345 117.533 65.6194 116.739C67.605 115.847 69.2928 114.656 69.2928 114.16C69.2928 113.565 69.9877 113.069 70.782 113.069C71.5762 113.069 72.2712 112.573 72.2712 112.078C72.2712 110.689 74.8525 110.887 76.441 112.375C80.0151 115.946 90.3402 121.103 96.7935 122.591C102.155 123.781 111.487 123.682 115.26 122.393C117.245 121.698 119.33 121.004 119.727 120.905C123.897 120.012 131.939 115.847 132.534 114.359C132.832 113.665 133.428 113.268 133.825 113.565C134.222 113.863 134.818 113.367 135.215 112.573C135.811 110.987 139.782 110.491 139.782 111.978C139.782 112.474 141.172 113.367 142.76 114.061C144.448 114.756 145.739 115.648 145.739 116.045C145.739 117.037 154.575 120.905 160.631 122.393C165.595 123.682 170.063 123.781 177.707 122.69C181.579 122.095 193.393 116.938 193.393 115.747C193.393 115.152 193.691 115.053 193.989 115.351C194.386 115.747 196.173 114.656 198.06 113.069C199.847 111.383 201.634 110.094 201.932 110.094C202.329 110.094 203.322 111.086 204.314 112.375ZM107.218 150.66C108.409 151.553 109.7 152.941 109.899 153.735C109.998 154.528 110.196 169.902 110.296 187.953V220.684L96.0985 220.981C88.0568 221.08 81.6035 220.882 81.3057 220.287C80.8093 219.493 80.71 185.473 81.1071 158C81.2064 151.255 81.3057 150.858 83.9863 149.966C88.5532 148.28 104.537 148.776 107.218 150.66Z" fill="#D92109" stroke="#D92109" stroke-width="2" mask="url(#path-1-inside-1_138_4)"/>
</svg>
